#!OML:ASF F:\VICON\USERDATA\INSTALL\rory3\rory3.ASF
:FULLY-SPECIFIED
:DEGREES
91
root 1.14115 17.7932 -16.7493 6.24257 -0.684894 -0.0804118
lowerback 6.19466 -0.491829 -0.884541
upperback 0.631487 -0.64939 2.20814
thorax -2.78686 -0.302524 2.83131
lowerneck -19.2013 -3.93994 -8.85835
upperneck 13.2554 -3.87815 5.31165
head 7.49885 -1.8066 2.72513
rclavicle -2.18663e-015 -1.19271e-014
rhumerus -31.4722 -7.50375 -80.5175
rradius 35.6018
rwrist 6.1745
rhand -10.0344 11.0005
rfingers 7.12502
rthumb 15.9505 -18.3627
lclavicle -2.18663e-015 -1.19271e-014
lhumerus -28.2934 6.35987 86.6442
lradius 29.0677
lwrist -8.335
lhand -16.1288 28.0399
lfingers 7.12502
lthumb 10.0759 57.7787
rfemur -10.5965 5.6887 20.7768
rtibia 22.1208
rfoot -11.2478 -11.6165
rtoes 0.589466
lfemur -10.6243 -2.77297 -20.4418
ltibia 21.5003
lfoot -12.9276 4.495
ltoes 0.0760638
92
root 1.14442 17.7927 -16.7422 6.29441 -0.799824 0.0130396
lowerback 6.11393 -0.472925 -0.986905
upperback 0.631705 -0.631515 2.20322
thorax -2.74139 -0.29301 2.88129
lowerneck -19.202 -3.9232 -8.89188
upperneck 13.3662 -3.8429 5.27589
head 7.53299 -1.796 2.7235
rclavicle 1.87852e-014 -2.94201e-014
rhumerus -31.5008 -7.43584 -80.5136
rradius 35.6669
rwrist 6.21614
rhand -10.0351 10.5709
rfingers 7.12502
rthumb 15.9499 -18.7924
lclavicle 1.87852e-014 -2.94201e-014
lhumerus -28.4091 6.00771 86.8281
lradius 29.4068
lwrist -7.76659
lhand -15.566 28.2737
lfingers 7.12502
lthumb 10.6188 57.9854
rfemur -10.6462 5.6796 20.6535
rtibia 22.0935
rfoot -11.1601 -11.6
rtoes -0.930095
lfemur -10.655 -2.7139 -20.5831
ltibia 21.5105
lfoot -12.9654 4.58261
ltoes -0.0474982
93
root 1.14608 17.7924 -16.7357 6.29782 -0.899557 0.0725063
lowerback 6.10112 -0.478998 -1.06842
upperback 0.646179 -0.645191 2.20802
thorax -2.71755 -0.299321 2.93306
lowerneck -19.206 -3.88592 -8.90294
upperneck 13.3725 -3.78739 5.26708
head 7.53166 -1.77098 2.72932
rclavicle 1.13307e-014 3.18055e-015
rhumerus -31.5294 -7.33078 -80.5336
rradius 35.8002
rwrist 6.31659
rhand -9.93309 10.1058
rfingers 7.12502
rthumb 16.0481 -19.2496
lclavicle 1.13307e-014 3.18055e-015
lhumerus -28.4301 5.52317 87.1109
lradius 28.9479
lwrist -4.85204
lhand -19.2252 24.5545
lfingers 7.12502
lthumb 7.08775 54.4159
rfemur -10.6079 5.65157 20.5743
rtibia 22.0536
rfoot -11.1127 -11.459
rtoes -0.763614
lfemur -10.6232 -2.72134 -20.6622
ltibia 21.5492
lfoot -13.0402 4.63365
ltoes 0.0338709
94
root 1.1466 17.7907 -16.7321 6.26128 -0.977873 0.0745264
lowerback 6.26387 -0.464834 -1.07906
upperback 0.675916 -0.62765 2.19848
thorax -2.77895 -0.290072 2.92984
lowerneck -19.3953 -3.85637 -8.89934
upperneck 13.3544 -3.74684 5.36043
head 7.5562 -1.73959 2.76367
rclavicle 1.98785e-016 1.03368e-014
rhumerus -31.4134 -7.37738 -80.5699
rradius 35.8267
rwrist 6.53548
rhand -9.88439 10.0548
rfingers 7.12502
rthumb 16.095 -19.2968
lclavicle 1.98785e-016 1.03368e-014
lhumerus -28.2962 6.1655 86.7549
lradius 29.4252
lwrist -7.98124
lhand -14.5516 28.8667
lfingers 7.12502
lthumb 11.5972 58.5258
rfemur -10.5665 5.67841 20.5678
rtibia 22.0366
rfoot -11.0305 -11.3865
rtoes -0.37271
lfemur -10.5454 -2.67815 -20.6674
ltibia 21.5554
lfoot -13.0559 4.63083
ltoes 0.189725
